<?xml version="1.0" encoding="utf-8"?>
<!-- Generator: Adobe Illustrator 25.4.1, SVG Export Plug-In . SVG Version: 6.00 Build 0)  -->
<svg version="1.1" id="Capa_1" xmlns="http://www.w3.org/2000/svg" xmlns:xlink="http://www.w3.org/1999/xlink" x="0px" y="0px"
	 viewBox="0 0 72.8 70.4" style="enable-background:new 0 0 72.8 70.4;" xml:space="preserve">
<style type="text/css">
	.st0{fill:#FFFFFF;}
</style>
<g transform="translate(1.4065934065934016 1.4065934065934016) scale(2.81 2.81)">
	<path class="st0" d="M16.7,12.6H14c0.1-0.4,0.2-0.7,0.4-0.9c0.2-0.2,0.5-0.3,0.9-0.3c0.4,0,0.7,0.1,0.9,0.3
		C16.5,11.9,16.6,12.2,16.7,12.6z"/>
	<path class="st0" d="M10,10.5c0,0.3-0.1,0.6-0.3,0.7c-0.2,0.1-0.5,0.2-0.9,0.2H7.1V9.6h1.5c0.4,0,0.7,0,1,0.1
		C9.8,9.8,10,10.1,10,10.5z"/>
	<path class="st0" d="M10.1,13.7c0,0.5-0.2,0.8-0.5,1c-0.2,0.1-0.5,0.1-0.8,0.1H7.1v-2.2h1.7c0.3,0,0.6,0,0.8,0.1
		C10,13,10.1,13.3,10.1,13.7z"/>
	<path class="st0" d="M11.7,0.5C5.2,0.5,0,5.8,0,12.2S5.2,24,11.7,24c6.5,0,11.7-5.3,11.7-11.7S18.2,0.5,11.7,0.5z M13.7,8.5H17v0.8
		h-3.3V8.5z M11.5,15.1c-0.2,0.3-0.3,0.5-0.6,0.6c-0.3,0.2-0.6,0.3-0.9,0.4c-0.4,0.1-0.7,0.1-1.1,0.1H5.2V8.2h3.9
		c1,0,1.7,0.3,2.1,0.9c0.2,0.3,0.4,0.8,0.4,1.2c0,0.5-0.1,0.9-0.4,1.2c-0.1,0.2-0.3,0.3-0.6,0.5c0.4,0.2,0.7,0.4,0.9,0.7
		c0.2,0.3,0.3,0.7,0.3,1.2C11.8,14.3,11.7,14.8,11.5,15.1z M18.2,13.6H14c0,0.6,0.2,1,0.6,1.2c0.2,0.1,0.5,0.2,0.8,0.2
		c0.3,0,0.6-0.1,0.8-0.3c0.1-0.1,0.2-0.2,0.3-0.4h1.5c0,0.3-0.2,0.7-0.6,1.1c-0.5,0.6-1.2,0.8-2.2,0.8c-0.8,0-1.5-0.2-2-0.7
		c-0.6-0.5-0.9-1.3-0.9-2.3c0-1,0.3-1.8,0.8-2.3c0.5-0.5,1.2-0.8,2.1-0.8c0.5,0,1,0.1,1.4,0.3c0.4,0.2,0.7,0.5,1,0.9
		c0.2,0.3,0.4,0.7,0.5,1.2C18.2,12.7,18.2,13.1,18.2,13.6z"/>
</g>
</svg>
