<?xml version="1.0" encoding="utf-8"?>
<!-- Generator: Adobe Illustrator 25.4.1, SVG Export Plug-In . SVG Version: 6.00 Build 0)  -->
<svg version="1.1" id="Capa_1" xmlns="http://www.w3.org/2000/svg" xmlns:xlink="http://www.w3.org/1999/xlink" x="0px" y="0px"
	 viewBox="0 0 449.8 460.7" style="enable-background:new 0 0 449.8 460.7;" xml:space="preserve">
<style type="text/css">
	.st0{fill:#FFFFFF;}
</style>
<path class="st0" d="M63.7,36.3h9.8h9.8h9.6h9.7h9.7l9.7,0l9.8,0h9.7l9.6,0l9.8,0h10l9.5,0l9.6,0h9.8h9.7h9.7h9.9l9.5,0l9.9,0h9.6
	h9.7h9.7l9.6,0l9.8,0h9.6h9.8h9.6h9.8h9.7h9.7l9.6,0l9.8,0l9.8,0l9.5,0c7.2,0.3,13.5,2.7,18.9,7.3l3.1,3.1c4.6,5.5,7,11.9,7.3,19.1
	l0,9.4V85v9.5v9.7v9.7l0,9.6l0,10.1l0,9.4l0,9.8l0,9.5l0,10v9.6l0,9.8l0,9.7l0,9.8l0,9.6v9.7l0,9.5l0,9.9l0,9.8l0,9.6v9.9v9.4v9.9
	v9.6v9.8v9.7v9.7l0,9.6v10l0,9.6v10l0,9.2l0,10l-0.9,6.2l-0.9,3.1c-1.5,3.9-3.6,7.4-6.5,10.4l-2,1.9c-5.7,5.1-13,7.5-20.6,7.5H387
	l-12.4,0.1c-3.2-0.1-6.3-0.1-9.5,0l-10.2-0.1l-6.4,0l-12.9,0l-8.9,0h-10.5h-8.8l-10.8,0l-8.8,0l-10.4,0l-9.7,0.1l-9.8-0.1l-9.6,0
	l-9.7,0h-8.6h-10.8h-8.4h-11h-8.1l-14.2,0l-5.7,0H160h-7.9h-10.7h-8.7l-10.8,0l-8.6,0c-3.7,0.1-7.4,0.1-11,0l-6.7,0l-12.4,0.1
	l-9.1-0.1l-10.3,0l-2.7-0.2c-6.2-0.8-11.7-3.3-16.5-7.4l-2.3-2.3c-4.7-5.4-7.3-11.7-7.6-18.9l-0.1-10v-9.7l0-9.8v-9.7l0-9.8v-9.6
	v-9.7V318v-9.8v-9.7l0-9.7l0-9.7v-9.9v-9.6v-9.7v-9.7l0-9.8l0-9.5v-9.8v-9.7v-9.8V182v-9.7v-9.7v-9.9v-9.7v-9.7v-9.7V114v-9.6l0-9.9
	l0-9.6l0-9.7l0.1-8.2c0.1-2.9,0.4-5.7,1-8.5l0.7-2.1c1.3-3.3,3.1-6.4,5.3-9.3l3.2-3.3c2.9-2.5,6.2-4.4,9.8-5.7l1.4-0.5l2-0.5
	c0.9,0,1.8-0.2,2.7-0.4L63.7,36.3z M112.5,155.6l-10.2,0c-0.2,0-0.3,0.1-0.3,0.3L102,163v9.7l0,9.6l-0.1,4.8v2.6v2.2
	c-0.2,2.3-0.2,4.6,0,6.9l0,0.8c-0.1,0.6,0.2,0.9,0.8,0.9c3.4-0.1,6.8-0.1,10.2,0l9.2,0l9.8,0l9.5-0.1l9.8,0.1l2.8-0.1
	c0.1,0,0.2-0.1,0.2-0.2l0.1-8.4v-9.3l0-9.8l-0.1-9.5l0-7c0-0.1,0-0.2-0.1-0.2c-0.1-0.1-0.3-0.1-0.5-0.1l-12.5,0h-1.6l-17.6-0.1
	L112.5,155.6z M287.7,216.5c-3.9,0.6-7.7,1.5-11.5,2.8l-2.9,0.9l-6.2,2.5c-3.4,1.4-6.7,3.1-9.8,5.1c-1.1,0.5-2.2,1.2-3.2,2
	c-2.5,1.6-4.7,3.4-6.8,5.3c-1.6,1.3-3.1,2.8-4.5,4.5c-1.8,2-3.5,4.2-5,6.5c-0.4,0.6-0.7,0.7-1.2,0.3c-0.1-0.1-0.1-0.2-0.1-0.3
	l-0.1-5.3l-0.1-10.4l-0.1-7.6c0-0.1-0.1-0.2-0.2-0.2l-7.5,0l-9.8,0.1l-9.3-0.1c-3.2,0.1-6.5,0.1-9.7,0l-8.2,0.1
	c-0.1,0-0.2,0.1-0.2,0.2l-0.1,8l0,9.8l-0.1,9.8l0.1,9.8l0.1,9.7c-0.1,3.2-0.2,6.5-0.1,9.7l0.1,9.7l-0.1,9.7l0.1,9.6l-0.1,9.8
	l0.1,9.8c-0.1,3.3-0.2,6.6-0.1,9.9l0.1,9.5l-0.1,9.6l0,9.9l0,9.7l0.1,9.8l0,8.1l0,7.2c0,0.1,0.1,0.1,0.1,0.1l8.2,0l9.4,0l9.9,0
	l9.3,0.1l10,0l4.6,0c0.1,0,0.2-0.1,0.2-0.2l0-5.9v-9.6l0-9.6l0-10l0-9.5v-9.4l0-9.8l0-9.9l0-9.7v-9.3l0.1-7.2l0.2-4.4
	c0.2-0.8,0.2-1.6,0.1-2.3l0.4-6.2l0.2-2.3c0.2-0.3,0.2-0.6,0.1-1l0.9-5.2l0.3-1.1l0.5-2.2c2.9-10.5,11-17.2,21.4-19.9
	c2.9-0.6,5.7-1,8.7-1.1c3.8-0.2,7.5-0.1,11.2,0.4c3.1,0.6,6.1,1.6,9,3l1.3,0.9c6.4,4.7,9.9,11.9,11.3,19.6l1.5,9.1l0.5,10.3l0,9.2
	v9.7l0,9.7l0,10l0,9.3l0,10.1l0,9.5v9.9v9.4v9.5l0,6c0,0.1,0.1,0.3,0.3,0.3c0,0,0,0,0,0l4-0.1c1.4,0.3,3,0.1,4,0.1
	c4.9,0.2,9.8,0,14.7,0l5.6,0h5.1l11.1-0.1l7.3-0.1c0.1,0,0.2-0.1,0.2-0.2l0.1-5.4l0-10.2l0-9.5l0-10.1l0-9.3l0-10.7l0-2.2l0-16.6
	l0-9.4l0-10.4l0-9.1v-9.7l-0.1-4.2c0.1-0.9,0-1.9-0.1-2.8c-0.1-4.2-0.5-8.4-1.2-12.5l-0.3-2.1c0.1-0.5,0-1-0.2-1.4
	c-0.3-2.1-0.7-4.1-1.2-6.2c-1.5-7.1-4.2-13.7-8.2-19.8c-1.7-2.6-3.7-5-6-7.2c-0.7-0.8-1.5-1.6-2.4-2.3c-2.3-2-4.8-3.7-7.5-5.2
	c-4.6-2.6-9.4-4.6-14.4-6.1c-0.4-0.2-0.8-0.3-1.2-0.4l-0.5-0.2c-0.9-0.3-1.7-0.5-2.6-0.7l-0.8-0.2c-2.1-0.5-4.3-0.9-6.4-1.1
	l-2.9-0.3l-1.2-0.2c-1.7-0.3-3.4-0.4-5.1-0.3l-4.4,0C293.5,215.7,290.6,216,287.7,216.5z M102,240.4v9.7l0,9.6l0,10.2v9.2v9.8l0,9.5
	v10.4l0,9.1l0,10l0,9.5l0,10l0,9.5v9.7l0,9.9v9.8l0,9.4c-0.1,1.9,0,3.8,0.1,5.8c0,0.1,0.1,0.2,0.2,0.2l9.7,0.1h12.4h6.6l10.6,0
	l9.7-0.2l2.8-0.1c0.1,0,0.1-0.1,0.1-0.2l0-5.3l0-10.1l0-9.3l0-10l0.1-9.8l0-9.4l0-9.8c-0.1-3.2-0.1-6.4,0-9.6l0-10.1l0-9.5v-9.7
	c-0.1-3.3-0.1-6.6,0-9.9v-9.6l-0.1-9.2v-10.2l0.1-9.7l-0.1-9.6l0-9.6c0-0.1-0.1-0.2-0.2-0.2l-2.9-0.1h-9.7l-9.6,0l-9.7,0h-9.7
	l-10.3-0.1c-0.1,0-0.2,0.1-0.2,0.2l0,0L102,240.4z"/>
</svg>
